<svg width="48" height="48" viewBox="0 0 48 48" fill="none" xmlns="http://www.w3.org/2000/svg">
<path d="M3.02062 24.4393C3.02062 20.7476 3.04125 17.056 3 13.3437C3 12.395 3.32998 11.8588 4.13431 11.3845C10.5277 7.75468 16.8798 4.08365 23.2319 0.392C24.1393 -0.144218 24.9024 -0.123594 25.7892 0.412624C31.5226 3.73305 37.2767 7.03284 43.0101 10.3326C44.5568 11.2195 44.5362 12.2919 42.9894 13.1993C36.9673 16.6848 30.9245 20.1908 24.8818 23.635C24.1806 24.0474 23.8919 24.4805 23.8919 25.3055C23.9331 32.2557 23.9125 39.2059 23.9125 46.1561C23.9125 47.9916 23.0669 48.4659 21.4376 47.5379C15.6424 44.2174 9.84708 40.8558 4.03119 37.5354C3.26811 37.1023 3 36.566 3 35.7205C3.04125 31.9669 3.02062 28.1928 3.02062 24.4393ZM42.2264 11.8176C41.9789 11.6319 41.8345 11.4876 41.6695 11.4051C36.1011 8.18777 30.5533 4.99109 24.9849 1.81504C24.7168 1.67067 24.2012 1.71192 23.9125 1.87691C17.6841 5.42419 11.4764 9.01272 5.24799 12.5806C4.73239 12.8694 4.54678 13.1993 4.54678 13.7768C4.54678 20.8508 4.52616 27.9453 4.48491 35.0193C4.48491 35.7411 4.75302 36.1329 5.35111 36.4629C10.7133 39.5359 16.0548 42.6294 21.417 45.7024C21.6645 45.8467 21.9532 45.9705 22.3657 46.1767C22.3657 45.6405 22.3657 45.2486 22.3657 44.8568C22.3657 38.1541 22.3863 31.4514 22.3451 24.7486C22.3451 23.6968 22.7163 23.0575 23.6237 22.5419C29.5428 19.1802 35.4205 15.7773 41.2983 12.3744C41.587 12.2094 41.8758 12.0444 42.2264 11.8176Z" fill="#D86613"/>
<path d="M44.8046 15.2617C44.9902 15.4267 45.0933 15.6742 45.0933 15.9216C45.0933 22.4594 45.0933 28.9971 45.114 35.5348C45.114 36.401 44.6809 36.5248 43.4847 37.226C37.9163 40.4845 35.7302 41.7426 28.5118 45.8673C28.3881 45.9292 28.2025 46.0529 28.0169 46.1767C27.4807 46.5273 26.7382 46.4242 26.3463 45.9086C26.1607 45.6817 26.0576 45.393 26.0576 45.1042C26.0576 42.8975 26.0989 40.7733 26.0989 38.5665C26.0989 37.2672 25.9545 36.731 26.7382 36.2979C29.4812 34.7511 32.1829 33.1631 34.9052 31.6163C35.4827 31.2863 35.7095 30.9151 35.7095 30.2345C35.6683 27.0585 35.7095 23.8618 35.6889 20.6857C35.6889 19.7989 36.0808 19.5514 37.1326 18.9533C39.8755 17.3859 40.9067 16.7672 43.2991 15.4061C43.4641 15.3029 43.6084 15.2204 43.7322 15.1379C44.0621 14.9523 44.4952 14.9936 44.8046 15.2617ZM41.8554 36.3804C43.0928 35.6379 43.6084 35.4111 43.6084 34.3799C43.5878 29.0177 43.5878 23.6349 43.5878 18.2728C43.5878 18.0665 43.5672 17.8603 43.5672 17.6334C43.5465 17.3653 43.2578 17.1797 43.0103 17.2828C42.8866 17.3447 42.7628 17.4066 42.6597 17.4891C41.0717 18.4377 39.8343 19.0565 38.4112 19.9433C37.5657 20.4589 37.1944 20.6857 37.1944 21.4901C37.2357 24.4599 37.1738 27.4297 37.2357 30.4201C37.2563 31.5751 36.8645 32.3381 35.8333 32.895C33.2759 34.318 30.7392 35.8029 28.2025 37.2878C27.9138 37.4528 27.5013 37.7828 27.5013 38.0509C27.4394 40.0721 27.46 42.0932 27.46 44.238C27.46 44.4443 27.6869 44.5886 27.8725 44.4855L41.8554 36.3804Z" fill="#D86613"/>
</svg>
