<svg width="48" height="48" viewBox="0 0 48 48" fill="none" xmlns="http://www.w3.org/2000/svg">
<path d="M22.8576 48C22.4299 48 21.9411 47.8371 21.3709 47.5112C19.3954 46.3707 17.4199 45.2302 15.4444 44.1101C11.7582 41.9717 7.92936 39.7925 4.16166 37.6337C3.34702 37.1653 2.98044 36.5543 3.0008 35.5768C3.02117 32.8477 3.02117 30.0983 3.02117 27.41C3.02117 26.4121 3.02117 25.4142 3.02117 24.4162C3.02117 23.4183 3.02117 22.4407 3.02117 21.4428C3.02117 18.836 3.02117 16.1273 3.0008 13.4594C2.98044 12.4411 3.36739 11.769 4.28386 11.2598C10.638 7.65508 16.9718 4.00958 23.1223 0.425172C24.0999 -0.145074 24.9553 -0.145074 25.9532 0.445538C30.0671 2.82835 34.2625 5.2519 38.3153 7.57362C39.8631 8.46972 41.411 9.34545 42.9588 10.2416C43.8141 10.7303 44.2418 11.3006 44.2418 11.9116C44.2418 12.5225 43.7938 13.0928 42.918 13.6019L40.5556 14.9665C35.4845 17.8991 30.2301 20.954 25.0367 23.9071C24.4054 24.2737 24.2017 24.5995 24.2221 25.292C24.2425 30.8111 24.2425 36.4118 24.2425 41.8291V45.8819C24.2425 46.9002 23.9777 47.5519 23.4686 47.8371C23.3056 47.9593 23.102 48 22.8576 48ZM24.5887 2.29884C24.4258 2.29884 24.2221 2.33957 24.0999 2.40067C20.7803 4.2947 17.4199 6.24983 14.1613 8.1235C11.3508 9.75277 8.51997 11.382 5.68911 12.991C5.26142 13.2353 5.13923 13.439 5.13923 13.9074C5.13923 21.5446 5.11886 28.408 5.07813 34.8843C5.07813 35.4546 5.24106 35.7397 5.77057 36.0452C9.5179 38.1836 13.306 40.3831 16.9922 42.5012C18.54 43.3973 20.0878 44.2934 21.656 45.1895C21.7986 45.271 21.9411 45.3524 22.1448 45.4339V44.5989C22.1448 42.9696 22.1448 41.3403 22.1448 39.7111C22.1448 34.8029 22.1448 29.7318 22.1244 24.7421C22.1244 23.6016 22.5521 22.8684 23.55 22.2982C28.0305 19.7524 32.5925 17.1252 36.9915 14.5795C38.3357 13.8056 39.6595 13.0317 41.0036 12.2578C41.1666 12.156 41.3499 12.0541 41.5332 11.9319C41.4721 11.8912 41.411 11.8505 41.3499 11.8097L39.9039 10.9747C34.955 8.14386 29.8838 5.21117 24.8535 2.33957C24.7924 2.3192 24.7109 2.29884 24.5887 2.29884Z" fill="#D86613"/>
<path d="M27.2975 46.4318C26.8495 46.4318 26.4014 46.2282 26.0756 45.8616C25.8515 45.5765 25.709 45.2303 25.709 44.8637C25.709 43.7843 25.7293 42.7049 25.7293 41.6662C25.7497 40.6072 25.7497 39.5074 25.7497 38.4077C25.7497 38.2244 25.7497 38.0411 25.7497 37.8781C25.7293 36.9617 25.7293 36.3507 26.544 35.9027C27.8678 35.1491 29.2119 34.3752 30.5153 33.642C31.8595 32.8681 33.2444 32.0535 34.6293 31.2796C35.118 31.0148 35.2606 30.7501 35.2606 30.2002C35.2402 28.632 35.2402 27.0435 35.2402 25.516C35.2402 23.9682 35.2402 22.3593 35.2199 20.7708C35.1995 19.6914 35.7698 19.3655 36.8084 18.7953C38.0304 18.1028 38.9265 17.5937 39.7411 17.1049C40.6983 16.555 41.6148 16.0255 42.9182 15.2923C43.0811 15.2109 43.2237 15.109 43.3459 15.0276C43.7939 14.7424 44.3845 14.8035 44.7919 15.1701C45.0363 15.3942 45.1788 15.72 45.1788 16.0459C45.1788 18.3065 45.1788 20.5671 45.1788 22.8277C45.1788 26.962 45.1788 31.2185 45.1992 35.4342C45.1992 36.3507 44.7104 36.6358 43.855 37.1246C43.7328 37.2061 43.5903 37.2672 43.4477 37.369C38.0507 40.5461 35.9734 41.7273 28.662 45.9023C28.5806 45.9431 28.4788 46.0245 28.3566 46.106L28.1936 46.2078C27.8881 46.3504 27.603 46.4318 27.2975 46.4318ZM42.9589 17.6548H42.9386C42.8367 17.6955 42.7553 17.7362 42.6738 17.7973L42.6127 17.8381C41.8795 18.2861 41.2075 18.6527 40.5761 19.0193C39.8429 19.4266 39.1709 19.8136 38.4173 20.2616L38.397 20.282C37.562 20.7911 37.3583 20.9337 37.3583 21.5447C37.3787 22.8888 37.3787 24.2533 37.3787 25.5771C37.3787 27.1453 37.3787 28.7542 37.399 30.3428C37.4194 31.6258 36.951 32.4608 35.8716 33.0718C33.4684 34.3956 31.0652 35.8212 28.7231 37.1857L28.3566 37.4097C28.0307 37.593 27.827 37.8374 27.8067 37.9189C27.7659 39.5482 27.7659 41.1571 27.7659 42.8882V43.9879L41.5333 35.9841L41.7777 35.8416C42.8571 35.1898 43.1219 35.0269 43.1219 34.2734C43.1015 30.5871 43.1015 26.8398 43.1015 23.2147C43.1015 21.6058 43.1015 19.9969 43.1015 18.3676C43.1015 18.1639 43.0811 17.9603 43.0811 17.7566C43.0811 17.7159 43.0404 17.6955 43.0404 17.6751C42.9997 17.6751 42.9793 17.6548 42.9589 17.6548Z" fill="#D86613"/>
</svg>
